# xmcd
#
# Track frame offsets:
#	150
#	17500
#	39065
#	58526
#	69685
#	87197
#	103553
#	119432
#	133581
#	150472
#	164922
#	181292
#	198867
#	214363
#	236672
#
# Disc length: 3407 seconds
#
# Revision: 1
# Processed by: cddbd v1.5.2PL0 Copyright (c) Steve Scherf et al.
# Submitted via: audiograbber 1.83.01
#
DISCID=c90d4d0f
DTITLE=Dixie Chicks - The Essential (2/2)
DYEAR=1900
DGENRE=
TTITLE0=Ready to run
TTITLE1=Cowboy take me away
TTITLE2=Goodbye Earl
TTITLE3=Some days you gotta dance
TTITLE4=Heartbreak town
TTITLE5=Sin wagon
TTITLE6=Without you
TTITLE7=Let him fly
TTITLE8=Wide open spaces
TTITLE9=There's your trouble
TTITLE10=You were mine
TTITLE11=I can love you better
TTITLE12=Tonight the heartache's on me
TTITLE13=Give it up or let me go
TTITLE14=I believe in love
EXTD=
EXTT0=
EXTT1=
EXTT2=
EXTT3=
EXTT4=
EXTT5=
EXTT6=
EXTT7=
EXTT8=
EXTT9=
EXTT10=
EXTT11=
EXTT12=
EXTT13=
EXTT14=
PLAYORDER=
